<?xml version="1.0" encoding="UTF-8" standalone="no"?>
<!DOCTYPE svg PUBLIC "-//W3C//DTD SVG 1.1//EN"
 "http://www.w3.org/Graphics/SVG/1.1/DTD/svg11.dtd">
<!-- Generated by graphviz version 2.40.1 (20161225.0304)
 -->
<!-- Title: UmlClassDiagram Pages: 1 -->
<svg width="241pt" height="118pt"
 viewBox="0.00 0.00 241.25 118.00" xmlns="http://www.w3.org/2000/svg" xmlns:xlink="http://www.w3.org/1999/xlink">
<g id="graph0" class="graph" transform="scale(1 1) rotate(0) translate(4 114)">
<title>UmlClassDiagram</title>
<polygon fill="#ffffff" stroke="transparent" points="-4,4 -4,-114 237.2483,-114 237.2483,4 -4,4"/>
<!-- 0 -->
<g id="node1" class="node">
<title>0</title>
<polygon fill="#f2f2f2" stroke="#000000" points="123.9663,-73.5 123.9663,-109.5 233.2483,-109.5 233.2483,-73.5 123.9663,-73.5"/>
<text text-anchor="middle" x="178.6073" y="-87.4" font-family="Times,serif" font-size="14.00" fill="#000000">RewardManager</text>
</g>
<!-- 1 -->
<g id="node2" class="node">
<title>1</title>
<polygon fill="#f2f2f2" stroke="#000000" points="21.3815,-73.5 21.3815,-109.5 105.8331,-109.5 105.8331,-73.5 21.3815,-73.5"/>
<text text-anchor="middle" x="63.6073" y="-87.4" font-family="Times,serif" font-size="14.00" fill="#000000">StakingPool</text>
</g>
<!-- 2 -->
<g id="node3" class="node">
<title>2</title>
<polygon fill="#f2f2f2" stroke="#000000" points="0,-.5 0,-36.5 127.2146,-36.5 127.2146,-.5 0,-.5"/>
<text text-anchor="middle" x="63.6073" y="-14.4" font-family="Times,serif" font-size="14.00" fill="#000000">StakingPoolFactory</text>
</g>
<!-- 1&#45;&gt;2 -->
<g id="edge1" class="edge">
<title>1&#45;&gt;2</title>
<path fill="none" stroke="#000000" d="M69.5275,-73.4096C70.3238,-65.3313 70.547,-55.6231 70.1971,-46.6312"/>
<polygon fill="#000000" stroke="#000000" points="73.6821,-46.2893 69.523,-36.5449 66.6977,-46.7561 73.6821,-46.2893"/>
</g>
<!-- 2&#45;&gt;0 -->
<g id="edge2" class="edge">
<title>2&#45;&gt;0</title>
<path fill="none" stroke="#000000" d="M92.0343,-36.5449C106.9623,-46.021 125.4383,-57.7492 141.4831,-67.9342"/>
<polygon fill="#000000" stroke="#000000" points="139.7904,-71.0053 150.1088,-73.4096 143.5419,-65.0954 139.7904,-71.0053"/>
</g>
<!-- 2&#45;&gt;1 -->
<g id="edge3" class="edge">
<title>2&#45;&gt;1</title>
<path fill="none" stroke="#000000" stroke-dasharray="5,2" d="M57.6916,-36.5449C56.8931,-44.6172 56.6678,-54.3236 57.0156,-63.3183"/>
<polygon fill="#000000" stroke="#000000" points="53.5308,-63.6641 57.6871,-73.4096 60.5153,-63.1993 53.5308,-63.6641"/>
</g>
</g>
</svg>
