<?xml version="1.0" encoding="UTF-8" standalone="no"?>
<!DOCTYPE svg PUBLIC "-//W3C//DTD SVG 1.1//EN"
 "http://www.w3.org/Graphics/SVG/1.1/DTD/svg11.dtd">
<!-- Generated by graphviz version 2.40.1 (20161225.0304)
 -->
<!-- Title: UmlClassDiagram Pages: 1 -->
<svg width="385pt" height="275pt"
 viewBox="0.00 0.00 385.31 275.20" xmlns="http://www.w3.org/2000/svg" xmlns:xlink="http://www.w3.org/1999/xlink">
<g id="graph0" class="graph" transform="scale(1 1) rotate(0) translate(4 271.2)">
<title>UmlClassDiagram</title>
<polygon fill="#ffffff" stroke="transparent" points="-4,4 -4,-271.2 381.3093,-271.2 381.3093,4 -4,4"/>
<!-- 6 -->
<g id="node1" class="node">
<title>6</title>
<polygon fill="#f2f2f2" stroke="#000000" points="7.3717,-73.5 7.3717,-109.5 112.0323,-109.5 112.0323,-73.5 7.3717,-73.5"/>
<text text-anchor="middle" x="59.702" y="-87.4" font-family="Times,serif" font-size="14.00" fill="#000000">BTCDistributor</text>
</g>
<!-- 5 -->
<g id="node4" class="node">
<title>5</title>
<polygon fill="#f2f2f2" stroke="#000000" points="0,-146.5 0,-188.1 119.404,-188.1 119.404,-146.5 0,-146.5"/>
<text text-anchor="middle" x="59.702" y="-171.5" font-family="Times,serif" font-size="14.00" fill="#000000">&lt;&lt;Interface&gt;&gt;</text>
<text text-anchor="middle" x="59.702" y="-154.7" font-family="Times,serif" font-size="14.00" fill="#000000">IPancakeRouter02</text>
</g>
<!-- 6&#45;&gt;5 -->
<g id="edge1" class="edge">
<title>6&#45;&gt;5</title>
<path fill="none" stroke="#000000" d="M59.702,-109.8491C59.702,-117.785 59.702,-127.2959 59.702,-136.2742"/>
<polygon fill="#000000" stroke="#000000" points="56.2021,-136.4431 59.702,-146.4432 63.2021,-136.4432 56.2021,-136.4431"/>
</g>
<!-- 7 -->
<g id="node2" class="node">
<title>7</title>
<polygon fill="#f2f2f2" stroke="#000000" points="240.6627,-.5 240.6627,-36.5 336.7413,-36.5 336.7413,-.5 240.6627,-.5"/>
<text text-anchor="middle" x="288.702" y="-14.4" font-family="Times,serif" font-size="14.00" fill="#000000">USDRetriever</text>
</g>
<!-- 4 -->
<g id="node3" class="node">
<title>4</title>
<polygon fill="#f2f2f2" stroke="#000000" points="0,-225.1 0,-266.7 119.404,-266.7 119.404,-225.1 0,-225.1"/>
<text text-anchor="middle" x="59.702" y="-250.1" font-family="Times,serif" font-size="14.00" fill="#000000">&lt;&lt;Interface&gt;&gt;</text>
<text text-anchor="middle" x="59.702" y="-233.3" font-family="Times,serif" font-size="14.00" fill="#000000">IPancakeRouter01</text>
</g>
<!-- 5&#45;&gt;4 -->
<g id="edge2" class="edge">
<title>5&#45;&gt;4</title>
<path fill="none" stroke="#000000" stroke-dasharray="5,2" d="M59.702,-188.3634C59.702,-190.4949 59.702,-192.7184 59.702,-194.9992"/>
<polygon fill="none" stroke="#000000" points="49.2021,-195.051 59.702,-225.051 70.2021,-195.0511 49.2021,-195.051"/>
</g>
<!-- 3 -->
<g id="node5" class="node">
<title>3</title>
<polygon fill="#f2f2f2" stroke="#000000" points="129.547,-73.5 129.547,-109.5 231.857,-109.5 231.857,-73.5 129.547,-73.5"/>
<text text-anchor="middle" x="180.702" y="-87.4" font-family="Times,serif" font-size="14.00" fill="#000000">PriceConsumer</text>
</g>
<!-- 0 -->
<g id="node6" class="node">
<title>0</title>
<polygon fill="#f2f2f2" stroke="#000000" points="259.061,-149.3 259.061,-185.3 368.343,-185.3 368.343,-149.3 259.061,-149.3"/>
<text text-anchor="middle" x="313.702" y="-163.2" font-family="Times,serif" font-size="14.00" fill="#000000">RewardManager</text>
</g>
<!-- 1 -->
<g id="node7" class="node">
<title>1</title>
<polygon fill="#f2f2f2" stroke="#000000" points="138.4762,-.5 138.4762,-36.5 222.9278,-36.5 222.9278,-.5 138.4762,-.5"/>
<text text-anchor="middle" x="180.702" y="-14.4" font-family="Times,serif" font-size="14.00" fill="#000000">StakingPool</text>
</g>
<!-- 1&#45;&gt;6 -->
<g id="edge4" class="edge">
<title>1&#45;&gt;6</title>
<path fill="none" stroke="#000000" d="M150.7919,-36.5449C140.1752,-42.9501 127.853,-50.3841 115.768,-57.6751"/>
<polygon fill="none" stroke="#000000" points="109.9506,-48.9218 89.6874,-73.4096 120.7987,-66.9029 109.9506,-48.9218"/>
</g>
<!-- 1&#45;&gt;3 -->
<g id="edge3" class="edge">
<title>1&#45;&gt;3</title>
<path fill="none" stroke="#000000" d="M180.702,-36.5449C180.702,-38.6507 180.702,-40.8678 180.702,-43.1543"/>
<polygon fill="none" stroke="#000000" points="170.2021,-43.4096 180.702,-73.4096 191.2021,-43.4097 170.2021,-43.4096"/>
</g>
<!-- 2 -->
<g id="node8" class="node">
<title>2</title>
<polygon fill="#f2f2f2" stroke="#000000" points="250.0947,-73.5 250.0947,-109.5 377.3093,-109.5 377.3093,-73.5 250.0947,-73.5"/>
<text text-anchor="middle" x="313.702" y="-87.4" font-family="Times,serif" font-size="14.00" fill="#000000">StakingPoolFactory</text>
</g>
<!-- 1&#45;&gt;2 -->
<g id="edge5" class="edge">
<title>1&#45;&gt;2</title>
<path fill="none" stroke="#000000" d="M207.6627,-36.5449C224.368,-46.2404 246.1953,-58.2934 265.7386,-68.639"/>
<polygon fill="#000000" stroke="#000000" points="264.3419,-71.8587 274.8226,-73.4096 267.5967,-65.6614 264.3419,-71.8587"/>
</g>
<!-- 2&#45;&gt;0 -->
<g id="edge6" class="edge">
<title>2&#45;&gt;0</title>
<path fill="none" stroke="#000000" d="M313.702,-109.8491C313.702,-118.6011 313.702,-129.2686 313.702,-139.0248"/>
<polygon fill="#000000" stroke="#000000" points="310.2021,-139.1199 313.702,-149.1199 317.2021,-139.1199 310.2021,-139.1199"/>
</g>
<!-- 2&#45;&gt;1 -->
<g id="edge7" class="edge">
<title>2&#45;&gt;1</title>
<path fill="none" stroke="#000000" stroke-dasharray="5,2" d="M286.6631,-73.4096C269.9418,-63.7069 248.11,-51.6528 228.5739,-41.3126"/>
<polygon fill="#000000" stroke="#000000" points="229.975,-38.0952 219.4941,-36.5449 226.7206,-44.2927 229.975,-38.0952"/>
</g>
</g>
</svg>
