<?xml version="1.0" encoding="UTF-8" standalone="no"?>
<!DOCTYPE svg PUBLIC "-//W3C//DTD SVG 1.1//EN"
 "http://www.w3.org/Graphics/SVG/1.1/DTD/svg11.dtd">
<!-- Generated by graphviz version 2.40.1 (20161225.0304)
 -->
<!-- Title: UmlClassDiagram Pages: 1 -->
<svg width="257pt" height="275pt"
 viewBox="0.00 0.00 257.42 275.20" xmlns="http://www.w3.org/2000/svg" xmlns:xlink="http://www.w3.org/1999/xlink">
<g id="graph0" class="graph" transform="scale(1 1) rotate(0) translate(4 271.2)">
<title>UmlClassDiagram</title>
<polygon fill="#ffffff" stroke="transparent" points="-4,4 -4,-271.2 253.4197,-271.2 253.4197,4 -4,4"/>
<!-- 0 -->
<g id="node1" class="node">
<title>0</title>
<polygon fill="#f2f2f2" stroke="#000000" points="0,-146.5 0,-188.1 89.5574,-188.1 89.5574,-146.5 0,-146.5"/>
<text text-anchor="middle" x="44.7787" y="-171.5" font-family="Times,serif" font-size="14.00" fill="#000000">&lt;&lt;Library&gt;&gt;</text>
<text text-anchor="middle" x="44.7787" y="-154.7" font-family="Times,serif" font-size="14.00" fill="#000000">BasisPoints</text>
</g>
<!-- 1 -->
<g id="node2" class="node">
<title>1</title>
<polygon fill="#f2f2f2" stroke="#000000" points="107.1241,-225.1 107.1241,-266.7 204.4333,-266.7 204.4333,-225.1 107.1241,-225.1"/>
<text text-anchor="middle" x="155.7787" y="-250.1" font-family="Times,serif" font-size="14.00" fill="#000000">&lt;&lt;Interface&gt;&gt;</text>
<text text-anchor="middle" x="155.7787" y="-233.3" font-family="Times,serif" font-size="14.00" fill="#000000">ILocker</text>
</g>
<!-- 2 -->
<g id="node3" class="node">
<title>2</title>
<polygon fill="#f2f2f2" stroke="#000000" points="146.1241,-146.5 146.1241,-188.1 243.4333,-188.1 243.4333,-146.5 146.1241,-146.5"/>
<text text-anchor="middle" x="194.7787" y="-171.5" font-family="Times,serif" font-size="14.00" fill="#000000">&lt;&lt;Interface&gt;&gt;</text>
<text text-anchor="middle" x="194.7787" y="-154.7" font-family="Times,serif" font-size="14.00" fill="#000000">ILockerUser</text>
</g>
<!-- 2&#45;&gt;1 -->
<g id="edge1" class="edge">
<title>2&#45;&gt;1</title>
<path fill="none" stroke="#000000" stroke-dasharray="5,2" d="M184.3274,-188.3634C180.1409,-196.8008 175.2394,-206.6791 170.691,-215.846"/>
<polygon fill="#000000" stroke="#000000" points="167.4331,-214.5374 166.1236,-225.051 173.7037,-217.6488 167.4331,-214.5374"/>
</g>
<!-- 4 -->
<g id="node4" class="node">
<title>4</title>
<polygon fill="#f2f2f2" stroke="#000000" points="140.1377,-.5 140.1377,-36.5 249.4197,-36.5 249.4197,-.5 140.1377,-.5"/>
<text text-anchor="middle" x="194.7787" y="-14.4" font-family="Times,serif" font-size="14.00" fill="#000000">RewardManager</text>
</g>
<!-- 3 -->
<g id="node5" class="node">
<title>3</title>
<polygon fill="#f2f2f2" stroke="#000000" points="150.6209,-73.5 150.6209,-109.5 238.9365,-109.5 238.9365,-73.5 150.6209,-73.5"/>
<text text-anchor="middle" x="194.7787" y="-87.4" font-family="Times,serif" font-size="14.00" fill="#000000">TotemToken</text>
</g>
<!-- 4&#45;&gt;3 -->
<g id="edge2" class="edge">
<title>4&#45;&gt;3</title>
<path fill="none" stroke="#000000" d="M194.7787,-36.5449C194.7787,-44.6172 194.7787,-54.3236 194.7787,-63.3183"/>
<polygon fill="#000000" stroke="#000000" points="191.2788,-63.4096 194.7787,-73.4096 198.2788,-63.4097 191.2788,-63.4096"/>
</g>
<!-- 3&#45;&gt;0 -->
<g id="edge4" class="edge">
<title>3&#45;&gt;0</title>
<path fill="none" stroke="#000000" stroke-dasharray="5,2" d="M158.85,-109.656C139.7486,-119.3086 115.956,-131.3317 95.05,-141.8962"/>
<polygon fill="#000000" stroke="#000000" points="93.3297,-138.844 85.9831,-146.478 96.4868,-145.0916 93.3297,-138.844"/>
</g>
<!-- 3&#45;&gt;1 -->
<g id="edge5" class="edge">
<title>3&#45;&gt;1</title>
<path fill="none" stroke="#000000" d="M167.117,-109.6144C155.432,-118.9368 143.0871,-131.4159 136.7787,-146 127.2016,-168.1409 133.2611,-195.1069 140.9934,-215.4395"/>
<polygon fill="#000000" stroke="#000000" points="137.8191,-216.9232 144.8625,-224.8379 144.2921,-214.2584 137.8191,-216.9232"/>
</g>
<!-- 3&#45;&gt;2 -->
<g id="edge3" class="edge">
<title>3&#45;&gt;2</title>
<path fill="none" stroke="#000000" stroke-dasharray="5,2" d="M194.7787,-109.8491C194.7787,-111.9193 194.7787,-114.0967 194.7787,-116.3439"/>
<polygon fill="none" stroke="#000000" points="184.2788,-116.4431 194.7787,-146.4432 205.2788,-116.4432 184.2788,-116.4431"/>
</g>
</g>
</svg>
