<?xml version="1.0" encoding="UTF-8" standalone="no"?>
<!DOCTYPE svg PUBLIC "-//W3C//DTD SVG 1.1//EN"
 "http://www.w3.org/Graphics/SVG/1.1/DTD/svg11.dtd">
<!-- Generated by graphviz version 2.40.1 (20161225.0304)
 -->
<!-- Title: UmlClassDiagram Pages: 1 -->
<svg width="745pt" height="191pt"
 viewBox="0.00 0.00 744.76 191.00" xmlns="http://www.w3.org/2000/svg" xmlns:xlink="http://www.w3.org/1999/xlink">
<g id="graph0" class="graph" transform="scale(1 1) rotate(0) translate(4 187)">
<title>UmlClassDiagram</title>
<polygon fill="#ffffff" stroke="transparent" points="-4,4 -4,-187 740.7567,-187 740.7567,4 -4,4"/>
<!-- 7 -->
<g id="node1" class="node">
<title>7</title>
<polygon fill="#f2f2f2" stroke="#000000" points="350.8892,-146.5 350.8892,-182.5 439.2048,-182.5 439.2048,-146.5 350.8892,-146.5"/>
<text text-anchor="middle" x="395.047" y="-160.4" font-family="Times,serif" font-size="14.00" fill="#000000">TotemToken</text>
</g>
<!-- 0 -->
<g id="node2" class="node">
<title>0</title>
<polygon fill="#f2f2f2" stroke="#000000" points="0,-.5 0,-36.5 110.094,-36.5 110.094,-.5 0,-.5"/>
<text text-anchor="middle" x="55.047" y="-14.4" font-family="Times,serif" font-size="14.00" fill="#000000">AdvisorsVesting</text>
</g>
<!-- 6 -->
<g id="node8" class="node">
<title>6</title>
<polygon fill="#f2f2f2" stroke="#000000" points="346.9993,-73.5 346.9993,-109.5 443.0947,-109.5 443.0947,-73.5 346.9993,-73.5"/>
<text text-anchor="middle" x="395.047" y="-87.4" font-family="Times,serif" font-size="14.00" fill="#000000">TotemVesting</text>
</g>
<!-- 0&#45;&gt;6 -->
<g id="edge1" class="edge">
<title>0&#45;&gt;6</title>
<path fill="none" stroke="#000000" d="M110.1241,-34.7482C113.1359,-35.5343 116.1247,-36.2905 119.047,-37 185.4611,-53.1242 261.731,-67.9042 317.2404,-77.9923"/>
<polygon fill="none" stroke="#000000" points="315.5263,-88.3522 346.9061,-83.2964 319.2225,-67.6801 315.5263,-88.3522"/>
</g>
<!-- 1 -->
<g id="node3" class="node">
<title>1</title>
<polygon fill="#f2f2f2" stroke="#000000" points="127.824,-.5 127.824,-36.5 254.27,-36.5 254.27,-.5 127.824,-.5"/>
<text text-anchor="middle" x="191.047" y="-14.4" font-family="Times,serif" font-size="14.00" fill="#000000">CommunityVesting</text>
</g>
<!-- 1&#45;&gt;6 -->
<g id="edge2" class="edge">
<title>1&#45;&gt;6</title>
<path fill="none" stroke="#000000" d="M241.474,-36.5449C264.7514,-44.8746 292.8917,-54.9444 318.6913,-64.1766"/>
<polygon fill="none" stroke="#000000" points="315.1704,-74.0687 346.9541,-74.2903 322.2458,-54.2965 315.1704,-74.0687"/>
</g>
<!-- 2 -->
<g id="node4" class="node">
<title>2</title>
<polygon fill="#f2f2f2" stroke="#000000" points="272.3955,-.5 272.3955,-36.5 395.6985,-36.5 395.6985,-.5 272.3955,-.5"/>
<text text-anchor="middle" x="334.047" y="-14.4" font-family="Times,serif" font-size="14.00" fill="#000000">PrivateSaleVesting</text>
</g>
<!-- 2&#45;&gt;6 -->
<g id="edge3" class="edge">
<title>2&#45;&gt;6</title>
<path fill="none" stroke="#000000" d="M349.1257,-36.5449C352.6449,-40.7565 356.5359,-45.413 360.5203,-50.1811"/>
<polygon fill="none" stroke="#000000" points="352.6366,-57.1216 379.9304,-73.4096 368.7511,-43.656 352.6366,-57.1216"/>
</g>
<!-- 3 -->
<g id="node5" class="node">
<title>3</title>
<polygon fill="#f2f2f2" stroke="#000000" points="413.6676,-.5 413.6676,-36.5 500.4264,-36.5 500.4264,-.5 413.6676,-.5"/>
<text text-anchor="middle" x="457.047" y="-14.4" font-family="Times,serif" font-size="14.00" fill="#000000">SeedVesting</text>
</g>
<!-- 3&#45;&gt;6 -->
<g id="edge4" class="edge">
<title>3&#45;&gt;6</title>
<path fill="none" stroke="#000000" d="M441.7212,-36.5449C438.0697,-40.8443 434.0244,-45.6072 429.8865,-50.4793"/>
<polygon fill="none" stroke="#000000" points="421.8287,-43.7466 410.4114,-73.4096 437.8349,-57.3408 421.8287,-43.7466"/>
</g>
<!-- 4 -->
<g id="node6" class="node">
<title>4</title>
<polygon fill="#f2f2f2" stroke="#000000" points="518.3941,-.5 518.3941,-36.5 627.6999,-36.5 627.6999,-.5 518.3941,-.5"/>
<text text-anchor="middle" x="573.047" y="-14.4" font-family="Times,serif" font-size="14.00" fill="#000000">StrategicVesting</text>
</g>
<!-- 4&#45;&gt;6 -->
<g id="edge5" class="edge">
<title>4&#45;&gt;6</title>
<path fill="none" stroke="#000000" d="M529.047,-36.5449C510.3268,-44.2223 488.002,-53.378 466.9942,-61.9936"/>
<polygon fill="none" stroke="#000000" points="462.93,-52.3115 439.1577,-73.4096 470.8984,-71.7411 462.93,-52.3115"/>
</g>
<!-- 5 -->
<g id="node7" class="node">
<title>5</title>
<polygon fill="#f2f2f2" stroke="#000000" points="645.3373,-.5 645.3373,-36.5 736.7567,-36.5 736.7567,-.5 645.3373,-.5"/>
<text text-anchor="middle" x="691.047" y="-14.4" font-family="Times,serif" font-size="14.00" fill="#000000">TeamVesting</text>
</g>
<!-- 5&#45;&gt;6 -->
<g id="edge6" class="edge">
<title>5&#45;&gt;6</title>
<path fill="none" stroke="#000000" d="M645.1971,-34.5865C642.4488,-35.4328 639.7169,-36.2444 637.047,-37 582.6186,-52.4031 520.3367,-66.3472 472.588,-76.2746"/>
<polygon fill="none" stroke="#000000" points="470.487,-65.9869 443.1863,-82.2634 474.6784,-86.5643 470.487,-65.9869"/>
</g>
<!-- 6&#45;&gt;7 -->
<g id="edge7" class="edge">
<title>6&#45;&gt;7</title>
<path fill="none" stroke="#000000" d="M395.047,-109.5449C395.047,-117.6172 395.047,-127.3236 395.047,-136.3183"/>
<polygon fill="#000000" stroke="#000000" points="391.5471,-136.4096 395.047,-146.4096 398.5471,-136.4097 391.5471,-136.4096"/>
</g>
</g>
</svg>
